HIERARCHY
ROOT hip
{
	OFFSET 0.000000 0.000000 0.000000 
	CHANNELS 6 Xposition Yposition Zposition Xrotation Zrotation Yrotation
	JOINT abdomen
	{
		OFFSET 0.000000 3.402643 0.000000 
		CHANNELS 3 Xrotation Zrotation Yrotation
		JOINT chest
		{
			OFFSET 0.000000 8.438565 -0.680529 
			CHANNELS 3 Xrotation Zrotation Yrotation
			JOINT neck
			{
				OFFSET 0.000000 10.207942 -0.272212 
				CHANNELS 3 Xrotation Zrotation Yrotation
				JOINT head
				{
					OFFSET 0.000000 3.130431 0.000000 
					CHANNELS 3 Xrotation Zrotation Yrotation
					End Site
					{
						OFFSET 0.000000 3.130435 0.000000 
					}
				}
			}
			JOINT lCollar
			{
				OFFSET 3.470700 6.669187 -0.816635 
				CHANNELS 3 Yrotation Zrotation Xrotation
				JOINT lShldr
				{
					OFFSET 3.198488 0.000000 0.000000 
					CHANNELS 3 Zrotation Yrotation Xrotation
					JOINT lForeArm
					{
						OFFSET 10.139888 0.000000 0.000000 
						CHANNELS 3 Yrotation Zrotation Xrotation
						JOINT lHand
						{
							OFFSET 8.370511 0.000000 0.000000 
							CHANNELS 3 Zrotation Yrotation Xrotation
							End Site
							{
								OFFSET 4.083176 0.000000 0.000000 
							}
						}
					}
				}
			}
			JOINT rCollar
			{
				OFFSET -3.470700 6.669187 -0.816635 
				CHANNELS 3 Yrotation Zrotation Xrotation
				JOINT rShldr
				{
					OFFSET -3.198488 0.000000 0.000000 
					CHANNELS 3 Zrotation Yrotation Xrotation
					JOINT rForeArm
					{
						OFFSET -10.139888 0.000000 0.000000 
						CHANNELS 3 Yrotation Zrotation Xrotation
						JOINT rHand
						{
							OFFSET -8.370511 0.000000 0.000000 
							CHANNELS 3 Zrotation Yrotation Xrotation
							End Site
							{
								OFFSET -4.083176 0.000000 0.000000 
							}
						}
					}
				}
			}
		}
	}
	JOINT lThigh
	{
		OFFSET 5.308129 -1.633274 1.361059 
		CHANNELS 3 Xrotation Zrotation Yrotation
		JOINT lShin
		{
			OFFSET -2.041588 -20.007561 0.000000 
			CHANNELS 3 Xrotation Zrotation Yrotation
			JOINT lFoot
			{
				OFFSET 0.000000 -19.190928 -1.224953 
				CHANNELS 3 Xrotation Yrotation Zrotation
				End Site
				{
					OFFSET 0.000000 -2.449906 4.627600 
				}
			}
		}
	}
	JOINT rThigh
	{
		OFFSET -5.308129 -1.633274 1.361059 
		CHANNELS 3 Xrotation Zrotation Yrotation
		JOINT rShin
		{
			OFFSET 2.041588 -20.007561 0.000000 
			CHANNELS 3 Xrotation Zrotation Yrotation
			JOINT rFoot
			{
				OFFSET 0.000000 -19.190928 -1.224953 
				CHANNELS 3 Xrotation Yrotation Zrotation
				End Site
				{
					OFFSET 0.000000 -2.449906 4.627600 
				}
			}
		}
	}
}
MOTION
Frames: 13
Frame Time: 0.033333
-1.966244 41.306671 12.992072 0.311378 -9.145750 -52.337799 5.996110 -0.126549 -0.040847 9.932300 -0.083778 -1.370000 -6.244020 5.660220 2.806760 -13.729200 20.624800 -22.830601 12.385600 10.182544 0.841947 -27.693199 5.193120 61.030899 -62.257099 0.295023 45.763901 8.090150 4.702770 -15.048400 -13.873816 -12.745288 1.159829 18.642700 15.214500 -38.597301 64.596199 -0.433335 21.008600 -8.090150 -4.702770 -15.048400 -19.697598 4.218214 -10.281611 59.242287 1.029816 7.728751 -21.142616 -1.584942 3.362351 12.762768 -4.754467 27.015192 29.780041 -0.352722 6.328062 -16.375063 -0.074942 3.979436 
-2.025818 41.433609 13.613526 0.468287 -7.391520 -49.335499 5.869530 -0.462368 -0.990693 9.700580 -0.797013 -2.821760 -5.668870 5.845950 5.108420 -15.515300 21.531900 -24.985701 12.738875 7.860837 0.445089 -28.945400 3.320200 60.916599 -60.372700 0.286352 44.221699 8.090150 4.702770 -15.048400 -13.843401 -9.677156 0.666002 26.031200 7.969240 -29.260799 75.095703 -0.531318 20.142300 -8.090150 -4.702770 -15.048400 -19.071535 3.105432 -10.796597 55.902695 0.913388 7.226006 -24.147371 -1.922394 3.840301 9.293169 -4.458899 21.483931 33.962959 -0.447819 7.609133 -14.446943 -0.091296 3.944925 
-2.062563 42.142353 14.129159 0.853035 -6.348260 -49.053398 6.192210 -0.622353 -1.839280 10.359100 -1.094650 -4.288540 -6.426530 5.847830 7.335940 -15.553200 21.539499 -25.208500 12.873523 3.989283 -0.188769 -34.885101 2.439530 60.561699 -55.362400 0.238788 42.994400 8.090150 4.702770 -15.048400 -13.536537 -4.890275 -0.091654 36.655701 5.750380 -16.820299 82.386803 -0.606787 25.009001 -8.090150 -4.702770 -15.048400 -17.432333 2.461010 -10.476035 50.972870 0.759990 7.978494 -21.524151 -1.693241 3.767562 2.204565 -4.154637 17.366035 41.352867 -0.638862 11.288548 -6.844835 -0.241507 5.362738 
-2.031940 43.136097 14.531554 1.114940 -6.395670 -50.225800 7.032270 -0.566747 -2.456470 12.023200 -0.928954 -5.537960 -8.750740 5.931660 9.196650 -13.147200 20.736601 -24.572001 11.944049 -0.611470 -0.895949 -42.848598 0.707206 59.596001 -54.677002 2.884627 42.080002 8.090150 4.702770 -15.048400 -12.588147 0.362174 -0.895688 47.023701 6.815220 0.157250 75.978500 -0.537196 32.595402 -8.090150 -4.702770 -15.048400 -15.198342 2.275201 -8.195692 45.527943 0.583018 11.661366 -15.404906 -1.243172 3.641540 -6.422338 -2.987836 15.769871 50.191456 -0.914695 15.247187 5.706165 -0.116056 8.264442 
-1.907829 44.160172 14.863401 0.847325 -7.633180 -51.270100 8.360350 -0.363694 -2.723530 14.682100 -0.376878 -6.350380 -12.617400 6.147230 10.335400 -8.414270 19.599800 -24.204000 9.469496 -4.238538 -1.354025 -50.295601 -2.673820 56.784599 -59.163635 6.176660 42.572701 8.090150 4.702770 -15.048400 -11.077684 4.380063 -1.467820 55.568401 9.220010 15.835600 57.348000 -0.356275 31.647800 -8.090150 -4.702770 -15.048400 -12.489621 2.616927 -3.394246 40.570393 0.448586 16.702682 -9.330029 -0.779944 3.530792 -14.576472 -0.577141 14.959526 59.569332 -1.221862 17.448723 19.650661 0.760857 11.297160 
-1.721313 44.667385 15.212323 -0.141613 -9.320910 -51.081100 9.893500 -0.074646 -2.898650 17.733500 0.396586 -7.079720 -17.142000 6.092410 11.321000 -2.801850 18.648001 -24.642200 6.824649 -5.158700 -1.346223 -56.859001 -7.104840 51.167099 -67.346794 7.216446 47.226101 8.090150 4.702770 -15.048400 -9.316323 6.910494 -1.780556 62.318001 10.192200 25.706499 37.527199 -0.191447 25.077499 -8.090150 -4.702770 -15.048400 -9.639806 3.043576 2.707364 37.079189 0.349705 20.345015 -6.485113 -0.542284 3.110010 -21.530602 1.444377 13.017757 69.465607 -1.577377 17.751493 28.347067 1.614277 12.706188 
-1.579385 44.617847 15.658645 -1.828490 -10.362600 -49.408100 11.241500 0.210177 -3.371580 20.391399 1.184480 -8.193400 -21.189199 5.479250 12.864400 2.108620 18.341101 -25.737200 5.576547 -3.450429 -0.981110 -62.188702 -11.009800 42.834400 -77.750237 6.208724 56.951199 8.090150 4.702770 -15.048400 -8.084864 7.890550 -1.872291 66.173103 7.724550 27.147400 25.569799 -0.120631 19.397301 -8.090150 -4.702770 -15.048400 -6.988270 2.888426 7.688741 35.203320 0.305091 20.808130 -7.471857 -0.524442 2.427666 -28.224100 1.579438 9.633742 79.612465 -1.959835 16.302404 31.367357 1.538810 11.507648 
-1.619445 44.305096 16.214045 -3.664830 -10.162000 -46.876202 12.121300 0.480798 -4.325570 22.100800 1.862820 -9.841070 -23.967199 4.351510 15.253900 5.582180 18.771299 -26.942101 6.074976 -0.903104 -0.587341 -64.916901 -13.452400 32.528301 -88.898834 4.134091 64.523102 8.090150 4.702770 -15.048400 -8.161408 7.250834 -1.776408 66.846100 3.449890 22.383301 21.100500 -0.092224 18.663200 -8.090150 -4.702770 -15.048400 -4.722336 1.979447 9.870472 33.966393 0.287820 18.568211 -10.188501 -0.568506 1.432373 -34.679436 -0.313711 5.725955 87.593910 -2.274494 13.957534 30.138496 0.785602 8.587638 
-1.930184 44.157928 16.827524 -4.915870 -9.045430 -44.410099 12.494000 0.787913 -5.504230 22.802500 2.553950 -11.695500 -25.407600 2.951130 18.025400 7.798250 19.732000 -27.762400 7.550804 1.306932 -0.319886 -63.861698 -14.785800 19.737801 -99.316437 1.973242 51.947601 8.090150 4.702770 -15.048400 -9.287729 5.889128 -1.607121 63.953201 -0.793993 14.445400 21.747499 -0.101505 19.049999 -8.090150 -4.702770 -15.048400 -2.751631 0.926132 9.659506 32.095211 0.262696 15.183064 -11.976799 -0.484032 0.201920 -40.175861 -2.987905 1.832318 90.944916 -2.411732 11.827879 26.318802 -0.046086 4.992309 
-2.523307 44.350262 17.421793 -5.254310 -7.925600 -42.572201 12.535400 1.192150 -6.469490 22.837700 3.419920 -13.282800 -25.965200 1.567600 20.559799 9.444220 20.829399 -27.941700 9.167068 3.441909 -0.066976 -58.862598 -15.077300 2.977350 -107.527000 0.706884 44.448002 8.090150 4.702770 -15.048400 -10.770823 4.154283 -1.408388 58.404800 -4.250710 5.699030 26.327400 -0.114416 16.073999 -8.090150 -4.702770 -15.048400 -1.074166 0.390722 8.138529 29.392250 0.210400 12.674194 -11.221251 -0.290080 -0.990074 -43.531864 -4.970644 -2.220193 88.317368 -2.284658 10.523435 20.965899 -0.560545 1.645207 
-3.362227 44.737934 17.929222 -4.954110 -7.404730 -41.434700 12.470400 1.704590 -6.955720 22.632900 4.467770 -14.133600 -26.129499 0.310546 22.164301 10.957000 21.892799 -27.589701 10.551651 6.711805 0.383112 -51.716900 -13.553700 -14.443300 -111.227997 0.742127 30.521601 8.090150 4.702770 -15.048400 -12.544281 1.639613 -1.100225 52.052200 -7.014500 -0.825639 33.589699 -0.167926 8.510660 -8.090150 -4.702770 -15.048400 -0.251603 0.775887 6.816013 27.419100 0.189879 11.743947 -8.257004 -0.134678 -1.555138 -43.749107 -5.488234 -6.540898 79.741760 -1.932959 9.933453 15.430292 -0.626561 -0.463093 
-4.391930 45.115059 18.320272 -4.685840 -7.548120 -40.802700 12.483300 2.103470 -7.220290 22.572100 5.324750 -14.709700 -26.306000 -0.326562 23.315100 12.431000 22.554501 -26.925699 12.716007 12.450965 1.206942 -45.689400 -10.181200 -25.226200 -107.378998 0.717038 21.820400 8.090150 4.702770 -15.048400 -13.888975 -2.360627 -0.524842 46.648300 -9.538110 -4.386330 42.743801 -0.235895 2.187350 -8.090150 -4.702770 -15.048400 -1.307505 1.950857 6.857119 29.140083 0.220336 11.769727 -4.741648 -0.083094 -1.043560 -40.397263 -4.482012 -10.957606 66.180939 -1.445284 9.516491 11.270467 -0.482079 -1.056538 
-5.546610 45.212795 18.612465 -5.116960 -8.141710 -40.555199 12.699200 2.166410 -7.558870 22.973900 5.548160 -15.492100 -26.899599 0.030452 24.519899 13.774500 22.514799 -26.195900 15.712481 21.444380 2.565078 -42.611698 -5.531150 -27.209400 -101.460999 0.661732 13.372000 8.090150 4.702770 -15.048400 -14.068063 -8.074107 0.397121 42.048000 -12.453500 -3.838150 53.060799 -0.315528 -1.397840 -8.090150 -4.702770 -15.048400 -4.945618 3.705034 9.150364 37.150223 0.383811 11.739591 -1.252339 -0.064835 0.729733 -35.082855 -2.479018 -14.848451 51.009773 -0.907467 8.234286 11.549890 -0.518684 -1.144766 
